<svg width="658" height="487" viewBox="0 0 658 487" fill="none" xmlns="http://www.w3.org/2000/svg">
<path d="M306.263 470.734C400.005 470.734 475.998 394.741 475.998 300.998C475.998 207.256 400.005 131.262 306.263 131.262C212.52 131.262 136.527 207.256 136.527 300.998C136.527 394.741 212.52 470.734 306.263 470.734Z" fill="white"/>
<path d="M135.264 300.998C135.264 206.71 211.974 130 306.262 130C400.551 130 477.261 206.71 477.261 300.998C477.261 395.287 400.551 471.996 306.262 471.996C211.974 471.996 135.264 395.287 135.264 300.998ZM137.789 300.998C137.789 393.894 213.366 469.471 306.262 469.471C399.159 469.471 474.736 393.894 474.736 300.998C474.736 208.102 399.159 132.525 306.262 132.525C213.366 132.525 137.789 208.102 137.789 300.998H137.789Z" fill="#3F3D56"/>
<path d="M276.005 301.736C276.005 295.752 277.78 289.902 281.105 284.926C284.429 279.95 289.155 276.072 294.684 273.782C300.212 271.492 306.296 270.893 312.166 272.06C318.035 273.228 323.426 276.11 327.658 280.341C331.889 284.573 334.771 289.964 335.939 295.833C337.106 301.703 336.507 307.786 334.217 313.315C331.927 318.844 328.048 323.57 323.073 326.894C318.097 330.219 312.247 331.994 306.263 331.994C298.238 331.994 290.542 328.806 284.867 323.131C279.193 317.457 276.005 309.761 276.005 301.736V301.736ZM306.263 272.955C298.632 272.964 291.316 275.999 285.921 281.394C280.525 286.79 277.49 294.106 277.481 301.736V301.736C277.481 307.429 279.169 312.993 282.332 317.726C285.494 322.459 289.989 326.148 295.248 328.327C300.508 330.505 306.295 331.075 311.878 329.965C317.461 328.854 322.589 326.113 326.614 322.088C330.639 318.063 333.38 312.934 334.491 307.351C335.601 301.768 335.031 295.981 332.853 290.722C330.675 285.463 326.986 280.968 322.253 277.806C317.52 274.643 311.955 272.955 306.263 272.955V272.955Z" fill="#3F3D56"/>
<path d="M248.7 301.736C248.7 290.351 252.076 279.222 258.401 269.756C264.726 260.29 273.716 252.912 284.235 248.555C294.753 244.199 306.327 243.059 317.493 245.28C328.659 247.501 338.915 252.983 346.966 261.033C355.016 269.084 360.498 279.34 362.719 290.506C364.94 301.672 363.8 313.246 359.444 323.764C355.087 334.283 347.709 343.273 338.243 349.598C328.777 355.923 317.648 359.299 306.263 359.299C298.704 359.299 291.218 357.81 284.234 354.917C277.251 352.024 270.905 347.784 265.56 342.439C260.215 337.094 255.975 330.748 253.082 323.764C250.189 316.781 248.7 309.295 248.7 301.736V301.736ZM306.263 245.65C295.17 245.65 284.326 248.939 275.103 255.102C265.879 261.265 258.691 270.024 254.445 280.273C250.2 290.521 249.09 301.798 251.254 312.678C253.418 323.558 258.76 333.552 266.604 341.395C274.447 349.239 284.441 354.581 295.321 356.745C306.2 358.909 317.478 357.798 327.726 353.553C337.975 349.308 346.734 342.12 352.897 332.896C359.06 323.673 362.349 312.829 362.349 301.736C362.333 286.866 356.418 272.61 345.903 262.095C335.389 251.581 321.133 245.666 306.263 245.65Z" fill="#CCCCCC"/>
<path d="M194.089 301.736C194.089 279.55 200.668 257.863 212.994 239.416C225.32 220.969 242.839 206.592 263.336 198.101C283.833 189.611 306.387 187.39 328.147 191.718C349.906 196.046 369.893 206.73 385.581 222.418C401.269 238.105 411.952 258.093 416.28 279.852C420.609 301.612 418.387 324.166 409.897 344.663C401.407 365.16 387.029 382.679 368.583 395.005C350.136 407.33 328.448 413.909 306.263 413.909C276.523 413.876 248.011 402.047 226.981 381.017C205.952 359.988 194.123 331.476 194.089 301.736V301.736ZM306.263 191.039C284.369 191.039 262.967 197.531 244.762 209.695C226.558 221.858 212.37 239.147 203.992 259.374C195.613 279.601 193.421 301.859 197.692 323.332C201.964 344.805 212.507 364.53 227.988 380.011C243.469 395.492 263.193 406.035 284.667 410.306C306.14 414.578 328.397 412.385 348.625 404.007C368.852 395.629 386.14 381.44 398.304 363.236C410.468 345.032 416.96 323.63 416.96 301.736C416.927 272.388 405.253 244.251 384.501 223.498C363.748 202.745 335.611 191.072 306.263 191.039V191.039Z" fill="#CCCCCC"/>
<path d="M306.262 315.02C314.006 315.02 320.284 308.742 320.284 300.998C320.284 293.254 314.006 286.977 306.262 286.977C298.518 286.977 292.241 293.254 292.241 300.998C292.241 308.742 298.518 315.02 306.262 315.02Z" fill="#E76F51"/>
<path d="M270.101 355.609C277.845 355.609 284.123 349.331 284.123 341.587C284.123 333.843 277.845 327.565 270.101 327.565C262.357 327.565 256.08 333.843 256.08 341.587C256.08 349.331 262.357 355.609 270.101 355.609Z" fill="#E9C46A"/>
<path d="M411.177 349.705C418.921 349.705 425.199 343.427 425.199 335.683C425.199 327.939 418.921 321.662 411.177 321.662C403.433 321.662 397.156 327.939 397.156 335.683C397.156 343.427 403.433 349.705 411.177 349.705Z" fill="#2A9D8F"/>
<path d="M306.262 307.64C309.931 307.64 312.904 304.666 312.904 300.998C312.904 297.33 309.931 294.356 306.262 294.356C302.594 294.356 299.621 297.33 299.621 300.998C299.621 304.666 302.594 307.64 306.262 307.64Z" fill="#0B103A"/>
<path d="M411.177 342.325C414.846 342.325 417.819 339.352 417.819 335.683C417.819 332.015 414.846 329.042 411.177 329.042C407.509 329.042 404.536 332.015 404.536 335.683C404.536 339.352 407.509 342.325 411.177 342.325Z" fill="#0B103A"/>
<path d="M270.101 348.967C273.769 348.967 276.743 345.993 276.743 342.325C276.743 338.657 273.769 335.683 270.101 335.683C266.433 335.683 263.459 338.657 263.459 342.325C263.459 345.993 266.433 348.967 270.101 348.967Z" fill="#0B103A"/>
<path d="M220.447 41.1936C220.447 44.8618 223.42 47.8354 227.089 47.8354C230.757 47.8354 233.73 44.8618 233.73 41.1936C233.73 37.5254 230.757 34.5518 227.089 34.5518C223.42 34.5518 220.447 37.5254 220.447 41.1936Z" fill="#2A9D8F"/>
<path d="M304.537 42.2805V295H305.721V41H244.721V42.2805H304.537Z" fill="#0B103A"/>
<path d="M227.089 22.0063C230.884 22.0063 234.593 23.1317 237.749 25.24C240.904 27.3484 243.364 30.345 244.816 33.8511C246.268 37.3572 246.648 41.2151 245.908 44.9372C245.167 48.6592 243.34 52.0781 240.656 54.7615C237.973 57.4449 234.554 59.2724 230.832 60.0127C227.11 60.7531 223.252 60.3731 219.746 58.9209C216.24 57.4686 213.243 55.0093 211.135 51.8539C209.027 48.6985 207.901 44.9888 207.901 41.1939C207.901 38.6742 208.398 36.1791 209.362 33.8511C210.326 31.5232 211.739 29.408 213.521 27.6263C215.303 25.8445 217.418 24.4312 219.746 23.4669C222.074 22.5026 224.569 22.0063 227.089 22.0063V22.0063ZM244.8 41.1939C244.8 37.6909 243.762 34.2665 241.815 31.3539C239.869 28.4412 237.103 26.1711 233.867 24.8305C230.63 23.49 227.069 23.1392 223.633 23.8226C220.198 24.506 217.042 26.1929 214.565 28.6699C212.088 31.1469 210.401 34.3028 209.718 37.7385C209.034 41.1742 209.385 44.7354 210.725 47.9718C212.066 51.2082 214.336 53.9743 217.249 55.9205C220.161 57.8667 223.586 58.9054 227.089 58.9054C231.785 58.9001 236.286 57.0323 239.607 53.7119C242.927 50.3915 244.795 45.8897 244.8 41.1939V41.1939Z" fill="#0B103A"/>
<path d="M40.5891 424.241C44.2573 424.241 47.2309 421.268 47.2309 417.599C47.2309 413.931 44.2573 410.958 40.5891 410.958C36.9209 410.958 33.9473 413.931 33.9473 417.599C33.9473 421.268 36.9209 424.241 40.5891 424.241Z" fill="#E76F51"/>
<path d="M21.4014 417.599C21.4014 413.804 22.5267 410.094 24.635 406.939C26.7434 403.784 29.7401 401.324 33.2461 399.872C36.7522 398.42 40.6102 398.04 44.3322 398.78C48.0542 399.521 51.4731 401.348 54.1565 404.032C56.8399 406.715 58.6674 410.134 59.4077 413.856C60.1481 417.578 59.7681 421.436 58.3158 424.942C56.8636 428.448 54.4043 431.445 51.2489 433.553C48.0935 435.661 44.3838 436.787 40.5889 436.787C35.5 436.787 30.6196 434.765 27.0213 431.167C23.4229 427.568 21.4014 422.688 21.4014 417.599V417.599ZM40.5889 399.888C37.0859 399.888 33.6615 400.926 30.7489 402.873C27.8362 404.819 25.5661 407.585 24.2255 410.821C22.885 414.058 22.5342 417.619 23.2176 421.054C23.901 424.49 25.5879 427.646 28.0649 430.123C30.5419 432.6 33.6978 434.287 37.1335 434.97C40.5692 435.654 44.1304 435.303 47.3668 433.962C50.6031 432.622 53.3693 430.352 55.3155 427.439C57.2616 424.527 58.3004 421.102 58.3004 417.599C58.295 412.903 56.4273 408.402 53.1069 405.081C49.7865 401.761 45.2846 399.893 40.5889 399.888Z" fill="#0B103A"/>
<path d="M617.074 264.099C620.743 264.099 623.716 261.125 623.716 257.457C623.716 253.789 620.743 250.815 617.074 250.815C613.406 250.815 610.433 253.789 610.433 257.457C610.433 261.125 613.406 264.099 617.074 264.099Z" fill="#E9C46A"/>
<path d="M597.887 257.457C597.887 253.662 599.012 249.953 601.12 246.797C603.229 243.642 606.225 241.183 609.732 239.73C613.238 238.278 617.096 237.898 620.818 238.638C624.54 239.379 627.958 241.206 630.642 243.89C633.325 246.573 635.153 249.992 635.893 253.714C636.633 257.436 636.253 261.294 634.801 264.8C633.349 268.306 630.89 271.303 627.734 273.411C624.579 275.519 620.869 276.645 617.074 276.645C614.555 276.645 612.059 276.149 609.732 275.184C607.404 274.22 605.288 272.807 603.507 271.025C601.725 269.243 600.312 267.128 599.347 264.8C598.383 262.472 597.887 259.977 597.887 257.457V257.457ZM617.074 239.746C612.379 239.751 607.877 241.619 604.556 244.939C601.236 248.26 599.368 252.762 599.363 257.457V257.457C599.363 260.96 600.401 264.385 602.348 267.297C604.294 270.21 607.06 272.48 610.296 273.821C613.533 275.161 617.094 275.512 620.53 274.829C623.965 274.145 627.121 272.458 629.598 269.981C632.075 267.504 633.762 264.348 634.445 260.913C635.129 257.477 634.778 253.916 633.438 250.679C632.097 247.443 629.827 244.677 626.914 242.731C624.002 240.784 620.577 239.746 617.074 239.746V239.746Z" fill="#0B103A"/>
<path d="M410.439 259.682L598.613 256.719L598.636 258.194L411.915 261.135V335.683H410.439V259.682Z" fill="#0B103A"/>
<path d="M59.0391 416.862H269.363V342.326H270.839V418.337H59.0391V416.862Z" fill="#0B103A"/>
<path d="M192.405 81.4456V0.267578L187.239 0.267578V81.4456H192.405Z" fill="#CCCCCC"/>
<path d="M177.646 81.3118V0.133789L172.481 0.133789V81.3118H177.646Z" fill="#CCCCCC"/>
<path d="M162.887 81.178V0L157.721 0V81.178H162.887Z" fill="#CCCCCC"/>
<path d="M81.178 452.284H0V457.45H81.178V452.284Z" fill="#CCCCCC"/>
<path d="M81.178 467.044H0V472.21H81.178V467.044Z" fill="#CCCCCC"/>
<path d="M81.178 481.804H0V486.97H81.178V481.804Z" fill="#CCCCCC"/>
<path d="M657.663 292.88H576.485V298.046H657.663V292.88Z" fill="#CCCCCC"/>
<path d="M657.663 307.64H576.485V312.806H657.663V307.64Z" fill="#CCCCCC"/>
<path d="M657.663 322.399H576.485V327.565H657.663V322.399Z" fill="#CCCCCC"/>
</svg>
