<svg width="665" height="529" viewBox="0 0 665 529" fill="none" xmlns="http://www.w3.org/2000/svg">
<path d="M453.078 226C487.912 172 522.745 172 557.578 226C592.412 280 627.075 280.05 661.908 226.05" stroke="#0B103A" stroke-width="2"/>
<line x1="557.078" y1="367.497" x2="557.591" y2="177.498" stroke="#0B103A" stroke-width="2"/>
<path d="M558.078 236.5C563.601 236.5 568.078 232.023 568.078 226.5C568.078 220.977 563.601 216.5 558.078 216.5C552.556 216.5 548.078 220.977 548.078 226.5C548.078 232.023 552.556 236.5 558.078 236.5Z" fill="#2A9D8F"/>
<path d="M149.17 245.683C159.714 245.683 168.262 237.136 168.262 226.592C168.262 216.048 159.714 207.5 149.17 207.5C138.626 207.5 130.078 216.048 130.078 226.592C130.078 237.136 138.626 245.683 149.17 245.683Z" fill="#E76F51"/>
<path d="M310.57 424.38C310.569 441.593 303.751 458.104 291.607 470.301C279.464 482.499 262.983 489.39 245.771 489.466V359.295C262.983 359.371 279.464 366.262 291.607 378.46C303.751 390.657 310.569 407.168 310.57 424.38Z" fill="#E76F51"/>
<path d="M247.078 489.5H245.78C228.09 489.5 211.124 482.652 198.615 470.462C186.106 458.272 179.078 441.739 179.078 424.5C179.078 407.261 186.106 390.728 198.615 378.538C211.124 366.348 228.09 359.5 245.78 359.5H247.078L247.078 489.5ZM245.06 361.471C228.03 361.656 211.763 368.378 199.788 380.178C187.813 391.978 181.097 407.904 181.097 424.5C181.097 441.096 187.813 457.022 199.788 468.822C211.763 480.622 228.03 487.344 245.06 487.529V361.471Z" fill="#0B103A"/>
<path d="M247.078 328.5H149.078V330.5H247.078V328.5Z" fill="#0B103A"/>
<path d="M663.078 328.5H344.078V330.5H663.078V328.5Z" fill="#0B103A"/>
<path d="M147.078 100.5V102.5L328.078 102.5V100.5L147.078 100.5Z" fill="#0B103A"/>
<path d="M247.078 328.5H245.078V514.5H247.078V328.5Z" fill="#0B103A"/>
<path d="M183.002 441.736C193.546 441.736 202.094 433.189 202.094 422.645C202.094 412.1 193.546 403.553 183.002 403.553C172.458 403.553 163.91 412.1 163.91 422.645C163.91 433.189 172.458 441.736 183.002 441.736Z" fill="#2A9D8F"/>
<ellipse cx="615.777" cy="417.885" rx="35.969" ry="36.3501" fill="#0B103A"/>
<path d="M454.944 402.826C480.122 361.283 509.534 358.585 551.545 400.021C593.556 441.457 625.255 440.149 648.663 394.517" stroke="#E76F51" stroke-width="2"/>
<path d="M454.944 371.15C468.818 363.88 482.814 355.469 524.825 396.906C566.836 438.342 608.812 423.532 632.22 377.9" stroke="#2A9D8F" stroke-width="2"/>
<path d="M663.078 438.657C663.078 481.134 629.008 515.55 587.002 515.55C544.996 515.55 510.925 481.134 510.925 438.657C510.925 396.18 544.996 361.764 587.002 361.764C629.008 361.764 663.078 396.18 663.078 438.657Z" stroke="#0B103A" stroke-width="2"/>
<path d="M663.078 438.657C663.078 481.134 629.008 515.55 587.002 515.55C544.996 515.55 510.925 481.134 510.925 438.657C510.925 396.18 544.996 361.764 587.002 361.764C629.008 361.764 663.078 396.18 663.078 438.657Z" stroke="#0B103A" stroke-width="2"/>
<path d="M453.5 404.384C478.678 362.841 509.534 358.585 551.545 400.021C593.556 441.457 625.54 436.06 643.011 404.384" stroke="#E76F51" stroke-width="2"/>
<path d="M453.5 372C468.5 363.5 482.814 355.469 524.825 396.906C566.448 436.58 600.876 423.597 624.512 390.882" stroke="#2A9D8F" stroke-width="2"/>
<mask id="path-19-inside-1_617_1601" fill="white">
<path d="M249.108 251.36C253.465 268.967 262.351 285.129 274.884 298.24C287.416 311.352 303.16 320.958 320.553 326.105C337.945 331.252 356.381 331.76 374.031 327.58C391.681 323.4 407.93 314.677 421.167 302.276C434.404 289.876 444.167 274.229 449.488 256.889C454.809 239.549 455.502 221.119 451.499 203.428C447.497 185.737 438.937 169.401 426.669 156.041C414.402 142.68 398.854 132.761 381.568 127.266L371.592 158.65C383.405 162.405 394.029 169.183 402.412 178.313C410.795 187.443 416.645 198.606 419.38 210.695C422.116 222.785 421.642 235.379 418.006 247.228C414.37 259.078 407.698 269.77 398.653 278.244C389.607 286.718 378.503 292.679 366.442 295.536C354.381 298.392 341.782 298.044 329.897 294.527C318.012 291.01 307.253 284.446 298.689 275.486C290.125 266.526 284.053 255.482 281.075 243.45L249.108 251.36Z"/>
</mask>
<path d="M249.108 251.36C253.465 268.967 262.351 285.129 274.884 298.24C287.416 311.352 303.16 320.958 320.553 326.105C337.945 331.252 356.381 331.76 374.031 327.58C391.681 323.4 407.93 314.677 421.167 302.276C434.404 289.876 444.167 274.229 449.488 256.889C454.809 239.549 455.502 221.119 451.499 203.428C447.497 185.737 438.937 169.401 426.669 156.041C414.402 142.68 398.854 132.761 381.568 127.266L371.592 158.65C383.405 162.405 394.029 169.183 402.412 178.313C410.795 187.443 416.645 198.606 419.38 210.695C422.116 222.785 421.642 235.379 418.006 247.228C414.37 259.078 407.698 269.77 398.653 278.244C389.607 286.718 378.503 292.679 366.442 295.536C354.381 298.392 341.782 298.044 329.897 294.527C318.012 291.01 307.253 284.446 298.689 275.486C290.125 266.526 284.053 255.482 281.075 243.45L249.108 251.36Z" stroke="#0B103A" stroke-width="4" mask="url(#path-19-inside-1_617_1601)"/>
<mask id="path-20-inside-2_617_1601" fill="white">
<path d="M364.934 123.448C344.926 120.558 324.509 123.561 306.182 132.091C287.854 140.621 272.409 154.307 261.737 171.476L289.705 188.861C296.998 177.129 307.552 167.776 320.077 161.947C332.601 156.118 346.553 154.066 360.225 156.041L364.934 123.448Z"/>
</mask>
<path d="M364.934 123.448C344.926 120.558 324.509 123.561 306.182 132.091C287.854 140.621 272.409 154.307 261.737 171.476L289.705 188.861C296.998 177.129 307.552 167.776 320.077 161.947C332.601 156.118 346.553 154.066 360.225 156.041L364.934 123.448Z" fill="#E76F51" stroke="#0B103A" stroke-width="4" mask="url(#path-20-inside-2_617_1601)"/>
<mask id="path-21-inside-3_617_1601" fill="white">
<path d="M254.05 184.396C246.504 201.383 243.647 220.082 245.779 238.547L278.493 234.771C277.036 222.152 278.988 209.374 284.145 197.766L254.05 184.396Z"/>
</mask>
<path d="M254.05 184.396C246.504 201.383 243.647 220.082 245.779 238.547L278.493 234.771C277.036 222.152 278.988 209.374 284.145 197.766L254.05 184.396Z" fill="#2A9D8F" stroke="#0B103A" stroke-width="4" mask="url(#path-21-inside-3_617_1601)"/>
<path d="M245.025 351.887C292.157 352.761 319.787 381.267 318.913 428.399C318.04 475.532 331.946 514.627 379.078 515.5" stroke="#0B103A" stroke-width="2"/>
<path d="M149.578 329.5C124.303 328.085 97.5568 318.134 78.3657 301.624C59.1747 285.114 45.9677 262.733 40.7929 237.952C35.6182 213.171 38.765 187.375 49.7453 164.565C60.7256 141.755 78.9257 123.205 101.523 111.793C124.12 100.381 148.078 101.5 148.078 101.5" stroke="#0B103A" stroke-width="2"/>
<path d="M453.478 0.999995C453.978 19.5 444.368 38.2412 433.014 53.7597C421.659 69.2783 406.569 81.7066 389.13 89.9011C371.691 98.0957 346.078 101.499 326.578 101.499" stroke="#0B103A" stroke-width="2"/>
<path d="M454.078 8.99997H452.078V514H454.078V8.99997Z" fill="#0B103A"/>
<path d="M379 514.5V516.5H592V514.5H379Z" fill="#0B103A"/>
</svg>
